<svg xmlns="http://www.w3.org/2000/svg" viewBox="0 0 169.14 41"><defs><style>.cls-1{fill:#0079bf;}.cls-1,.cls-2,.cls-3{fill-rule:evenodd;}.cls-2{fill:#0a4293;}.cls-3,.cls-5{fill:#15a5ed;}.cls-4{fill:#172b4d;}</style></defs><title>Asset 18</title><g id="Layer_2" data-name="Layer 2"><g id="Layer_2-2" data-name="Layer 2"><path class="cls-1" d="M14.91,0A6.09,6.09,0,1,1,8.82,6.07,6.1,6.1,0,0,1,14.91,0Z"/><path class="cls-2" d="M9.51,38.11V32.43c-.06-3.31-.67-5.95-3.63-7.57L0,21.59V15.77l7.91,4.51c2.92,1.69,6.63,4,6.65,10.22V41Z"/><path class="cls-3" d="M21.07,38.11V32.43c.06-3.31.67-5.95,3.63-7.57l5.88-3.27V15.77l-7.91,4.51C19.75,22,16,24.3,16,30.5V41Z"/><path class="cls-1" d="M25,11.09,20,13.92c-2.9,1.6-5.51,2.39-8.39.64L5.88,11.09.83,14,8.7,18.6c2.92,1.7,6.8,3.74,12.18.66L30,14Z"/><path class="cls-4" d="M54.73,15.5q8.48,0,8.48,10.13,0,5.1-2.24,7.63a8.13,8.13,0,0,1-6.41,2.53,8.39,8.39,0,0,1-6-2.13,8.11,8.11,0,0,1-2.25-6.18V6.56a1.28,1.28,0,0,1,.4-1,1.37,1.37,0,0,1,1.89,0,1.28,1.28,0,0,1,.4,1V18.25a6.57,6.57,0,0,1,2.32-1.95A7.28,7.28,0,0,1,54.73,15.5ZM49,21.66v5.82a5.88,5.88,0,0,0,1.52,4.39,5.57,5.57,0,0,0,4.05,1.47q5.94,0,5.95-7.71T54.56,18a5.87,5.87,0,0,0-2.09.38,5,5,0,0,0-1.6.93,8.84,8.84,0,0,0-1,1.09,4.93,4.93,0,0,0-.62.93Z"/><path class="cls-4" d="M68.73,11.79a1.41,1.41,0,0,1-1.6-1.6c0-1.12.53-1.69,1.6-1.69s1.6.57,1.6,1.69A1.41,1.41,0,0,1,68.73,11.79Zm1.35,5.32V34.23a1.34,1.34,0,0,1-.38,1,1.43,1.43,0,0,1-1.94,0,1.34,1.34,0,0,1-.38-1V17.11a1.31,1.31,0,0,1,.38-1,1.43,1.43,0,0,1,1.94,0A1.31,1.31,0,0,1,70.08,17.11Z"/><path class="cls-4" d="M74.78,18.27a1.24,1.24,0,0,1-.36-.91,1.23,1.23,0,0,1,1.27-1.27H87.24a1.23,1.23,0,0,1,1.27,1.27,1.31,1.31,0,0,1-.3.84L77.71,32.63h9.74a1.26,1.26,0,0,1,.93.37,1.3,1.3,0,0,1,.38.93,1.3,1.3,0,0,1-1.31,1.31H75.1A1.23,1.23,0,0,1,73.83,34a1.35,1.35,0,0,1,.3-.84L84.75,18.62H75.69A1.22,1.22,0,0,1,74.78,18.27Z"/><path class="cls-5" d="M103.35,24.74l-2.61,9.19a2.3,2.3,0,0,1-4.35.17l-5.77-15a3,3,0,0,1-.21-1,2.26,2.26,0,0,1,2.27-2.27,2.23,2.23,0,0,1,2.15,1.47l3.5,10.38,2.83-10.21a2.28,2.28,0,0,1,4.34-.12l2.83,10.33,3.46-10.38A2.24,2.24,0,0,1,114,15.76,2.17,2.17,0,0,1,116.26,18a2.46,2.46,0,0,1-.22.89l-5.77,15.3a2.15,2.15,0,0,1-2.11,1.44A2.31,2.31,0,0,1,106,34Z"/><path class="cls-5" d="M126.55,35.79c-5.7,0-9.24-3.25-9.24-10.12s3.54-10.17,9.24-10.17,9.23,3.25,9.23,10.17S132.24,35.79,126.55,35.79Zm0-16.41c-3,0-4.64,2.11-4.64,6.29s1.6,6.24,4.64,6.24,4.63-2.11,4.63-6.24S129.58,19.38,126.55,19.38Z"/><path class="cls-5" d="M143.67,18.25a5.23,5.23,0,0,1,4.55-2.7,2.15,2.15,0,1,1,0,4.3c-2.91,0-4.55,1.85-4.55,4.68V33.3a2.28,2.28,0,0,1-4.56,0V18a2.28,2.28,0,0,1,4.56,0Z"/><path class="cls-5" d="M165.17,34.69l-6.28-8.43-1.35,1v6.08a2.2,2.2,0,0,1-2.28,2.19A2.17,2.17,0,0,1,153,33.39v-26a2.17,2.17,0,0,1,2.27-2.19,2.19,2.19,0,0,1,2.28,2.19V22.29l7.63-6A2.2,2.2,0,1,1,168,19.68l-5.53,4.22,6.2,8.14a2.24,2.24,0,0,1,.47,1.35,2.18,2.18,0,0,1-2.2,2.19A2.15,2.15,0,0,1,165.17,34.69Z"/></g></g></svg>